<?xml version="1.0" standalone="no"?>
<!DOCTYPE svg PUBLIC "-//W3C//DTD SVG 20010904//EN"
 "http://www.w3.org/TR/2001/REC-SVG-20010904/DTD/svg10.dtd">
<svg version="1.0" xmlns="http://www.w3.org/2000/svg"
 width="238.000000pt" height="304.000000pt" viewBox="0 0 238.000000 304.000000"
 preserveAspectRatio="xMidYMid meet">

<g transform="translate(0.000000,304.000000) scale(0.100000,-0.100000)"
fill="rgb(225, 81, 63)" stroke="none">
<path d="M7 3033 c-4 -3 -7 -89 -7 -190 l0 -183 835 0 835 0 0 190 0 190 -828
0 c-456 0 -832 -3 -835 -7z"/>
<path d="M2000 1900 l0 -1120 190 0 190 0 0 1120 0 1120 -190 0 -190 0 0
-1120z"/>
<path d="M729 2398 c-136 -12 -253 -80 -335 -191 -48 -65 -48 -66 -64 43 -19
122 0 110 -176 110 l-154 0 0 -1180 0 -1180 190 0 190 0 0 450 c0 248 2 450 5
450 3 0 24 -17 46 -39 87 -84 201 -122 364 -123 210 -1 353 58 497 205 153
155 223 328 235 578 14 296 -73 531 -259 704 -146 135 -327 193 -539 173z
m175 -361 c99 -45 179 -139 219 -255 27 -81 34 -265 13 -355 -46 -194 -171
-318 -351 -347 -59 -9 -153 4 -212 30 -57 25 -130 94 -161 155 -27 49 -27 54
-30 273 -3 203 -1 230 17 291 35 114 130 201 251 228 80 18 188 10 254 -20z"/>
</g>
</svg>
